<svg width="28" height="28" viewBox="0 0 28 28" fill="none" xmlns="http://www.w3.org/2000/svg">
<mask id="mask0_1_305" style="mask-type:luminance" maskUnits="userSpaceOnUse" x="4" y="16" width="20" height="10">
<path fill-rule="evenodd" clip-rule="evenodd" d="M4.66667 16.9121H23.1466V25.5151H4.66667V16.9121Z" fill="white"/>
</mask>
<g mask="url(#mask0_1_305)">
<path fill-rule="evenodd" clip-rule="evenodd" d="M13.9077 18.6621C8.93655 18.6621 6.41655 19.5161 6.41655 21.2019C6.41655 22.9029 8.93655 23.7651 13.9077 23.7651C18.8777 23.7651 21.3965 22.9111 21.3965 21.2253C21.3965 19.5243 18.8777 18.6621 13.9077 18.6621ZM13.9077 25.5151C11.6222 25.5151 4.66655 25.5151 4.66655 21.2019C4.66655 17.3566 9.94105 16.9121 13.9077 16.9121C16.1932 16.9121 23.1465 16.9121 23.1465 21.2253C23.1465 25.0706 17.8732 25.5151 13.9077 25.5151Z" fill="#008CBA"/>
</g>
<mask id="mask1_1_305" style="mask-type:luminance" maskUnits="userSpaceOnUse" x="7" y="2" width="14" height="13">
<path fill-rule="evenodd" clip-rule="evenodd" d="M7.71153 2.33344H20.1016V14.7218H7.71153V2.33344Z" fill="white"/>
</mask>
<g mask="url(#mask1_1_305)">
<path fill-rule="evenodd" clip-rule="evenodd" d="M13.9077 3.99898C11.4099 3.99898 9.37757 6.03014 9.37757 8.52798C9.3694 11.0176 11.3866 13.0476 13.8739 13.057L13.9077 13.89V13.057C16.4044 13.057 18.4356 11.0246 18.4356 8.52798C18.4356 6.03014 16.4044 3.99898 13.9077 3.99898ZM13.9077 14.7218H13.8704C10.4614 14.7113 7.6999 11.9311 7.71157 8.52448C7.71157 5.11198 10.4906 2.33298 13.9077 2.33298C17.3237 2.33298 20.1016 5.11198 20.1016 8.52798C20.1016 11.944 17.3237 14.7218 13.9077 14.7218Z" fill="#008CBA"/>
</g>
</svg>
