<svg width="30" height="34" viewBox="0 0 30 34" fill="none" xmlns="http://www.w3.org/2000/svg">
<path d="M12.8421 11.7989H8.42105V10H12.8421V11.7989ZM11.3684 26.1905C11.3684 27.1169 11.56 27.9894 11.8916 28.736C11.4863 28.8349 11.0663 28.8889 10.6316 28.8889C8.87278 28.8889 7.18601 28.036 5.94234 26.5178C4.69868 24.9997 4 22.9406 4 20.7936C4 18.6467 4.69868 16.5876 5.94234 15.0695C7.18601 13.5513 8.87278 12.6984 10.6316 12.6984C12.1937 12.6984 13.6305 13.364 14.7726 14.4974L15.8189 13.2021C16.1947 13.5979 16.5263 14.0116 16.8579 14.4704L15.8116 15.7476C16.7517 17.179 17.2637 18.959 17.2632 20.7936V21.1085C16.7916 20.9106 16.3053 20.7936 15.7895 20.7936C13.3505 20.7936 11.3684 23.2132 11.3684 26.1905ZM11.3684 15.3968H9.89474V21.6931H11.3684V15.3968ZM14.3158 23.4921V28.8889L18 26.1905L14.3158 23.4921Z" fill="white"/>
</svg>
