<svg width="28" height="28" viewBox="0 0 28 28" fill="none" xmlns="http://www.w3.org/2000/svg">
<g clip-path="url(#clip0_2_538)">
<path d="M8.255 27.9998C8.54599 27.9998 8.81339 27.924 9.05718 27.7723C9.30099 27.6206 9.59984 27.3929 9.95374 27.0894L14.0236 23.5961H21.5972C22.769 23.5961 23.756 23.3932 24.5582 22.9873C25.3603 22.5815 25.9678 21.9917 26.3807 21.2179C26.7936 20.4441 27 19.4996 27 18.3844V9.66801C27 8.55285 26.7936 7.60838 26.3807 6.83461C25.9678 6.06082 25.3603 5.471 24.5582 5.06514C23.756 4.65929 22.769 4.45636 21.5972 4.45636H6.40292C5.23111 4.45636 4.24411 4.65929 3.44192 5.06514C2.63975 5.471 2.03222 6.06082 1.61933 6.83461C1.20644 7.60838 1 8.55285 1 9.66801V18.3844C1 19.4996 1.20644 20.4441 1.61933 21.2179C2.03222 21.9917 2.63975 22.5815 3.44192 22.9873C4.24411 23.3932 5.23111 23.5961 6.40292 23.5961H6.96916V26.5546C6.96916 26.9946 7.08123 27.3455 7.30537 27.6073C7.52951 27.869 7.84605 27.9998 8.255 27.9998ZM8.73867 25.9175V22.6174C8.73867 22.3064 8.67182 22.0864 8.53812 21.9574C8.40443 21.8285 8.17636 21.764 7.85392 21.764H6.40292C5.20751 21.764 4.32472 21.4776 3.75454 20.9049C3.18437 20.3322 2.89928 19.4882 2.89928 18.3731V9.66801C2.89928 8.56044 3.18437 7.72028 3.75454 7.14753C4.32472 6.57478 5.20751 6.28841 6.40292 6.28841H21.5972C22.7847 6.28841 23.6655 6.57478 24.2396 7.14753C24.8137 7.72028 25.1008 8.56044 25.1008 9.66801V18.3731C25.1008 19.4882 24.8137 20.3322 24.2396 20.9049C23.6655 21.4776 22.7847 21.764 21.5972 21.764H13.9529C13.6225 21.764 13.3551 21.7982 13.1507 21.8664C12.9462 21.9347 12.7338 22.0789 12.5136 22.2989L8.73867 25.9175ZM7.92469 10.8856H19.922C20.1186 10.8856 20.2818 10.8211 20.4115 10.6921C20.5413 10.5632 20.6062 10.4077 20.6062 10.2256C20.6062 10.0435 20.5413 9.8899 20.4115 9.76472C20.2818 9.63956 20.1186 9.57697 19.922 9.57697H7.92469C7.72808 9.57697 7.56489 9.63956 7.43513 9.76472C7.30537 9.8899 7.24049 10.0435 7.24049 10.2256C7.24049 10.4077 7.30537 10.5632 7.43513 10.6921C7.56489 10.8211 7.72808 10.8856 7.92469 10.8856ZM7.92469 14.5838H19.922C20.1186 14.5838 20.2818 14.5212 20.4115 14.396C20.5413 14.2709 20.6062 14.1135 20.6062 13.9238C20.6062 13.7493 20.5413 13.5957 20.4115 13.4629C20.2818 13.3302 20.1186 13.2638 19.922 13.2638H7.92469C7.72808 13.2638 7.56489 13.3302 7.43513 13.4629C7.30537 13.5957 7.24049 13.7493 7.24049 13.9238C7.24049 14.1135 7.30537 14.2709 7.43513 14.396C7.56489 14.5212 7.72808 14.5838 7.92469 14.5838ZM7.92469 18.2934H15.7224C15.9111 18.2934 16.0723 18.2308 16.206 18.1057C16.3397 17.9805 16.4066 17.8268 16.4066 17.6448C16.4066 17.4551 16.3397 17.2958 16.206 17.1669C16.0723 17.0379 15.9111 16.9734 15.7224 16.9734H7.92469C7.72808 16.9734 7.56489 17.0379 7.43513 17.1669C7.30537 17.2958 7.24049 17.4551 7.24049 17.6448C7.24049 17.8268 7.30537 17.9805 7.43513 18.1057C7.56489 18.2308 7.72808 18.2934 7.92469 18.2934Z" fill="#008CBA"/>
</g>
<defs>
<clipPath id="clip0_2_538">
<rect width="26" height="25" fill="white" transform="translate(1 2.99982)"/>
</clipPath>
</defs>
</svg>
