<svg width="13" height="21" viewBox="0 0 13 21" fill="none" xmlns="http://www.w3.org/2000/svg">
<path d="M6.5 9.80159C5.88432 9.80159 5.29386 9.52984 4.8585 9.04611C4.42315 8.56239 4.17857 7.90632 4.17857 7.22223C4.17857 6.53813 4.42315 5.88206 4.8585 5.39834C5.29386 4.91461 5.88432 4.64286 6.5 4.64286C7.11568 4.64286 7.70615 4.91461 8.1415 5.39834C8.57685 5.88206 8.82143 6.53813 8.82143 7.22223C8.82143 7.56095 8.76139 7.89636 8.64472 8.20931C8.52806 8.52225 8.35707 8.8066 8.1415 9.04611C7.92594 9.28563 7.67002 9.47562 7.38838 9.60525C7.10673 9.73487 6.80486 9.80159 6.5 9.80159ZM6.5 0C4.77609 0 3.12279 0.760911 1.90381 2.11534C0.68482 3.46977 0 5.30677 0 7.22223C0 12.6389 6.5 20.6349 6.5 20.6349C6.5 20.6349 13 12.6389 13 7.22223C13 5.30677 12.3152 3.46977 11.0962 2.11534C9.87721 0.760911 8.22391 0 6.5 0Z" fill="white"/>
</svg>
